<svg xmlns="http://www.w3.org/2000/svg" width="98" height="98" viewBox="0 0 98 98">
  <g id="Group_4426" data-name="Group 4426" transform="translate(-465 -2176)">
    <circle id="Ellipse_16" data-name="Ellipse 16" cx="49" cy="49" r="49" transform="translate(465 2176)" fill="#ff5b29" opacity="0.088"/>
    <g id="Group_4417" data-name="Group 4417" transform="translate(1473.715 -268.172)">
      <path id="Path_139" data-name="Path 139" d="M272.933,146.633v20.71c.072-.048.137-.072.185-.112q5.712-5.266,11.415-10.532c.3-.273.594-.546.892-.827a1.118,1.118,0,0,1,1.719.064l5.888,6.419q2.639,2.88,5.286,5.752c.064.072.121.145.225.265.731-.739,1.43-1.462,2.137-2.169q1.265-1.277,2.539-2.539a1.1,1.1,0,0,1,1.647-.032q2.229,2.205,4.434,4.442a1.08,1.08,0,0,1-.008,1.575,1.1,1.1,0,0,1-1.607-.056c-1.141-1.125-2.265-2.257-3.4-3.4a1.67,1.67,0,0,1-.177-.249,1.361,1.361,0,0,0-.209.177c-1.438,1.43-2.868,2.868-4.306,4.3-1.189,1.189-2.378,2.386-3.575,3.575a1.12,1.12,0,1,1-1.558-1.591c.819-.827,1.639-1.647,2.49-2.506-3.583-3.9-7.15-7.8-10.749-11.721l-1.446,1.326q-5.7,5.254-11.4,10.5a1.21,1.21,0,0,0-.442,1.012c.024,2.836.008,5.68.008,8.515v.41h.378q10.905,0,21.811.008a1.1,1.1,0,0,1,.37,2.153,3.42,3.42,0,0,1-.763.048H270.7V144.4h46.69v20.975a1.1,1.1,0,0,1-1.358,1.2,1.075,1.075,0,0,1-.852-1.125c-.008-1.486,0-2.964,0-4.45V146.971c0-.112-.008-.233-.016-.361C301.074,146.633,287.024,146.633,272.933,146.633Z" transform="translate(-1256 2326)" fill="#ff5b29"/>
      <path id="Path_140" data-name="Path 140" d="M651.18,491.05h5.5a.53.53,0,0,0,.482-.225,2.2,2.2,0,0,1,3.551.024.475.475,0,0,0,.426.209c1.084-.008,2.177-.008,3.262-.008a1.122,1.122,0,0,1,1.1.627,1.045,1.045,0,0,1-.145,1.2,1.121,1.121,0,0,1-.932.4c-1.085-.008-2.177,0-3.262-.008a.48.48,0,0,0-.45.217,2.2,2.2,0,0,1-3.543.008.5.5,0,0,0-.45-.225c-3.639.008-7.278,0-10.917,0a1.829,1.829,0,0,1-.594-.072,1.06,1.06,0,0,1-.715-1.181,1.045,1.045,0,0,1,.94-.94c.426-.032.852-.024,1.277-.032,1.478.008,2.972.008,4.467.008Z" transform="translate(-1599.759 2008.221)" fill="#ff5b29"/>
      <path id="Path_141" data-name="Path 141" d="M650.8,657.047h5.471a.619.619,0,0,0,.562-.265,2.192,2.192,0,0,1,3.5.032.523.523,0,0,0,.474.233c1.1-.008,2.2-.016,3.294,0a1.111,1.111,0,1,1-.056,2.217c-1.068-.008-2.137,0-3.2-.008a.57.57,0,0,0-.53.249,2.2,2.2,0,0,1-3.51-.008.567.567,0,0,0-.506-.241c-3.575.008-7.15,0-10.725,0h-.386a1.1,1.1,0,1,1,.024-2.209c1.872-.008,3.727,0,5.583,0Z" transform="translate(-1599.403 1855.568)" fill="#ff5b29"/>
      <path id="Path_142" data-name="Path 142" d="M659.25,576.37h-5a.446.446,0,0,0-.426.193,2.2,2.2,0,0,1-3.543.056.6.6,0,0,0-.53-.249c-1.438.008-2.884.008-4.322.008a1.111,1.111,0,0,1-1.173-.924,1.089,1.089,0,0,1,1.117-1.285c1.47-.008,2.948,0,4.418.008a.532.532,0,0,0,.474-.233,2.195,2.195,0,0,1,3.567.04.486.486,0,0,0,.458.2h9.994a1.1,1.1,0,0,1,.313,2.153,2.4,2.4,0,0,1-.635.048c-1.574-.008-3.141-.008-4.715-.016Z" transform="translate(-1599.539 1931.787)" fill="#ff5b29"/>
      <path id="Path_143" data-name="Path 143" d="M664.867,244.426a3.334,3.334,0,1,1-3.286-3.326A3.329,3.329,0,0,1,664.867,244.426Z" transform="translate(-1612.37 2237.068)" fill="#ff5b29"/>
    </g>
  </g>
</svg>
