<svg xmlns="http://www.w3.org/2000/svg" width="98" height="98" viewBox="0 0 98 98">
  <g id="Group_4431" data-name="Group 4431" transform="translate(-465 -2504)">
    <circle id="Ellipse_16" data-name="Ellipse 16" cx="49" cy="49" r="49" transform="translate(465 2504)" fill="#00b227" opacity="0.09"/>
    <g id="Group_4422" data-name="Group 4422" transform="translate(1304.898 22.04)">
      <path id="Path_154" data-name="Path 154" d="M312.2,135.075h-39.42v28.632h.432q14.1,0,28.185-.008a.586.586,0,0,1,.6.3,5.322,5.322,0,0,0,.639.735,2.877,2.877,0,0,0-.248,2.317c-.12.008-.216.016-.32.016q-14.959-.024-29.911-.04a2.6,2.6,0,0,1-2.653-2.549q-.072-2.9-.072-5.794-.012-10.992,0-21.984c0-2.973.04-5.937.064-8.91a2.239,2.239,0,0,1,.384-1.4,3.776,3.776,0,0,1,1.662-1.183.6.6,0,0,1,.24-.024q17.86.012,35.712.032c1.83,0,3.66.056,5.49.04a2.254,2.254,0,0,1,1.766.791,2.575,2.575,0,0,1,.775,1.862q-.012,13.257.04,26.523v.424c-.471.08-.887.168-1.311.216a.367.367,0,0,1-.256-.144,2.713,2.713,0,0,0-1.494-1.079c-.224-.048-.184-.208-.184-.36-.008-2.038-.016-4.067-.024-6.105q-.024-6.017-.064-12.027A2.081,2.081,0,0,1,312.2,135.075Zm.072-4.643c-.024-.256-.024-.511-.072-.767a.871.871,0,0,0-.847-.831,6.588,6.588,0,0,0-1.374.024.751.751,0,0,0-.711.7,7.558,7.558,0,0,0-.008,1.59.935.935,0,0,0,1,.863,3.887,3.887,0,0,0,.432.008C311.944,131.982,312.24,131.687,312.271,130.432Zm-9.581-.008h.016c-.016-.256-.024-.511-.048-.767a.811.811,0,0,0-.591-.751,2.832,2.832,0,0,0-1.782-.008.8.8,0,0,0-.575.727,13.25,13.25,0,0,0-.04,1.382.951.951,0,0,0,.839.951,4.951,4.951,0,0,0,1.191.032.978.978,0,0,0,.983-1.1C302.69,130.728,302.69,130.576,302.69,130.424Zm3.3-1.63h-.456a.982.982,0,0,0-1.087,1.063c-.008.4,0,.8.008,1.2a.829.829,0,0,0,.607.831,2.63,2.63,0,0,0,1.75-.016.952.952,0,0,0,.352-.24,2.552,2.552,0,0,0,.04-2.477C306.861,128.746,306.39,128.81,305.99,128.794Z" transform="translate(-1085 2383)" fill="#00b227"/>
      <path id="Path_155" data-name="Path 155" d="M694.861,509.726c.368.064.727.12,1.095.192a.423.423,0,0,0,.5-.192l.072-.1c.583-.8.583-.831-.04-1.59s-.623-.8.1-1.454c.256-.232.527-.456.807-.663.344-.256.5-.24.8.072.248.256.487.535.719.807a.436.436,0,0,0,.575.128c.288-.136.687-.16.855-.376.152-.2.064-.591.088-.9.008-.136.016-.264.024-.4.032-.479.184-.655.655-.679s.927-.024,1.391-.008c.392.016.527.152.543.559s0,.8.024,1.2a.383.383,0,0,0,.2.28c.312.136.631.24.951.36a.268.268,0,0,0,.36-.1c.312-.36.647-.687.975-1.023a.248.248,0,0,1,.376-.04c.464.392.927.775,1.391,1.167a.4.4,0,0,1,.048.6c-.248.328-.487.663-.743.983a.3.3,0,0,0-.048.408,8.065,8.065,0,0,1,.408.727.443.443,0,0,0,.511.24c.416-.064.839-.1,1.255-.136a.348.348,0,0,1,.424.336c.088.5.2,1.007.28,1.51.072.44-.048.615-.479.7a10.089,10.089,0,0,1-1.095.184c-.2.024-.3.112-.3.3a.048.048,0,0,1-.008.032c-.2,1.1-.2,1.1.743,1.686.679.424.711.519.312,1.223-.216.384-.464.751-.7,1.127a.358.358,0,0,1-.527.128c-.312-.176-.631-.336-.951-.511a.638.638,0,0,0-.767.064c-.719.559-.719.551-.431,1.406a7.251,7.251,0,0,1,.208.743.362.362,0,0,1-.256.464c-.551.192-1.1.375-1.662.567a.372.372,0,0,1-.511-.256c-.152-.368-.3-.743-.432-1.119a.338.338,0,0,0-.375-.28,7.185,7.185,0,0,1-.927-.032c-.192-.016-.272.064-.336.232-.152.416-.32.823-.487,1.231a.351.351,0,0,1-.471.232c-.591-.208-1.175-.424-1.758-.647a.319.319,0,0,1-.168-.44c.128-.416.256-.823.4-1.231a.329.329,0,0,0-.112-.424,5.467,5.467,0,0,1-.639-.575c-.16-.168-.288-.152-.479-.04-.36.216-.735.408-1.111.607a.367.367,0,0,1-.551-.144c-.28-.471-.575-.927-.823-1.406a.51.51,0,0,1,.216-.767,7.84,7.84,0,0,1,.895-.543.4.4,0,0,0,.232-.527,5.321,5.321,0,0,1-.136-.7c-.024-.248-.168-.352-.4-.4-.36-.064-.727-.128-1.087-.216s-.456-.208-.408-.567c.072-.535.176-1.071.264-1.606A.458.458,0,0,1,694.861,509.726Zm6.888.144a2.3,2.3,0,0,0-2.325,2.325,2.345,2.345,0,1,0,4.691.024A2.312,2.312,0,0,0,701.75,509.87Z" transform="translate(-1475.693 2033.944)" fill="#00b227"/>
      <path id="Path_156" data-name="Path 156" d="M510.881,309.262a1.476,1.476,0,0,1-1.279-.839,1.168,1.168,0,0,1-.016-.927c.719-2.3,1.406-4.619,2.15-6.912.9-2.8,1.838-5.578,2.757-8.367a1.257,1.257,0,0,1,.591-.719,1.427,1.427,0,0,1,2.006.551,1.153,1.153,0,0,1,.1.919c-.823,2.629-1.622,5.258-2.461,7.879-.807,2.525-1.662,5.034-2.5,7.544A1.248,1.248,0,0,1,510.881,309.262Z" transform="translate(-1305.889 2230.173)" fill="#00b227"/>
      <path id="Path_157" data-name="Path 157" d="M387.658,348.052c.759.36,1.526.711,2.285,1.071s1.51.7,2.245,1.095a1.416,1.416,0,0,1,.112,2.509,1.051,1.051,0,0,1-.967.12c-.487-.168-.967-.336-1.438-.551q-3.188-1.474-6.361-2.981a1.437,1.437,0,0,1-.7-1.926,1.481,1.481,0,0,1,.783-.743c1.047-.5,2.094-1,3.148-1.486,1.295-.6,2.6-1.183,3.9-1.774.152-.064.3-.12.463-.176a1.311,1.311,0,0,1,1.774.855,1.366,1.366,0,0,1-.679,1.742c-.927.464-1.87.9-2.813,1.335-.583.272-1.167.551-1.742.823A.159.159,0,0,0,387.658,348.052Z" transform="translate(-1189.227 2182.489)" fill="#00b227"/>
      <path id="Path_158" data-name="Path 158" d="M609.349,347.652c-1.047-.5-2-.951-2.949-1.406-.551-.272-1.1-.551-1.654-.831a1.278,1.278,0,0,1-.791-1.279,1.557,1.557,0,0,1,.959-1.335.685.685,0,0,1,.5-.024c.647.224,1.3.44,1.926.719,2.03.927,4.036,1.886,6.057,2.829a1.458,1.458,0,0,1,.024,2.613c-2.509,1.159-5.01,2.333-7.528,3.468a1.311,1.311,0,0,1-1.774-.575,1.328,1.328,0,0,1,.511-1.886c1.215-.623,2.453-1.207,3.676-1.806C608.638,348,608.949,347.852,609.349,347.652Z" transform="translate(-1392.77 2182.833)" fill="#00b227"/>
    </g>
  </g>
</svg>
