<svg xmlns="http://www.w3.org/2000/svg" width="98" height="98" viewBox="0 0 98 98">
  <g id="Group_4427" data-name="Group 4427" transform="translate(-911 -2176)">
    <circle id="Ellipse_16" data-name="Ellipse 16" cx="49" cy="49" r="49" transform="translate(911 2176)" fill="#ff0d1f" opacity="0.09"/>
    <g id="Group_4420" data-name="Group 4420" transform="translate(1323.694 -209.271)">
      <path id="Path_145" data-name="Path 145" d="M540.064,261.844v1.529c-.025,1.278-.526,1.98-1.454,1.88-1.1-.1-1.429-.852-1.379-1.855.025-.526,0-1.053,0-1.729-.8,0-1.454.025-2.105,0a1.391,1.391,0,1,1-.025-2.782c.652-.025,1.3,0,2.055,0V231.741c-.727,0-1.429.025-2.105,0a1.392,1.392,0,0,1,0-2.782c.652-.05,1.328,0,2.156,0v-1.4c0-1.529.426-2.156,1.429-2.156.978.025,1.354.627,1.379,2.206,0,.4.05.8.05,1.278h27.045v-1.9c0-.927.426-1.529,1.4-1.554.978,0,1.4.6,1.4,1.529v2.005H572a1.328,1.328,0,0,1,1.479,1.454A1.3,1.3,0,0,1,572,231.741h-2.005c-.025.476-.075.877-.075,1.278,0,5.74.025,11.48-.025,17.22a1.383,1.383,0,0,0,1.153,1.554c2.256.727,4.461,1.554,6.692,2.306.752.251,1.379.6,1.379,1.529s-.627,1.278-1.379,1.529c-2.757.9-5.514,1.855-8.271,2.732a1.872,1.872,0,0,0-1.4,1.379c-.877,2.782-1.83,5.514-2.732,8.271-.251.752-.577,1.4-1.5,1.4s-1.278-.6-1.529-1.354c-.777-2.306-1.579-4.637-2.456-6.918-.15-.376-.677-.9-1.028-.9-6.116-.05-12.207-.025-18.323-.025C540.49,261.719,540.365,261.769,540.064,261.844ZM563.575,245.4c-3.359-3.359-6.667-6.692-9.9-9.9l-9.8,9.8c3.233,3.258,6.542,6.617,9.876,9.951,2.807-2.456,2.757-2.431,1.629-5.991a2.459,2.459,0,0,1,.175-2.005,2.366,2.366,0,0,1,2.005-.175C561.093,248.209,561.093,248.259,563.575,245.4Zm3.559-13.56H554.777c4.061,4.086,8.246,8.3,12.357,12.407Zm-14.513,27.02c-4.161-4.186-8.347-8.347-12.457-12.482v12.482Zm-12.482-14.588c4.136-4.136,8.3-8.3,12.407-12.432H540.139Zm18.648,6.241c1.729,4.988,3.359,9.625,5.088,14.613a30.359,30.359,0,0,0,1.3-3.985,4.849,4.849,0,0,1,4.286-4.261,31.248,31.248,0,0,0,3.935-1.3C568.387,253.849,563.75,252.219,558.787,250.515Zm8.322-.15v-4.086c-1,.952-2.03,1.93-3.158,3.008C565.053,249.663,566.056,249.989,567.109,250.365Zm-8.447,8.472c-.376-1.078-.7-2.08-1.1-3.183-1.078,1.128-2.055,2.131-3.033,3.183Z" transform="translate(-920.1 2186.1)" fill="#ff0d1f"/>
    </g>
  </g>
</svg>
