<svg xmlns="http://www.w3.org/2000/svg" width="98" height="98" viewBox="0 0 98 98">
  <g id="Group_4430" data-name="Group 4430" transform="translate(-911 -2504)">
    <circle id="Ellipse_16" data-name="Ellipse 16" cx="49" cy="49" r="49" transform="translate(911 2504)" fill="#1d61f9" opacity="0.09"/>
    <g id="Group_4423" data-name="Group 4423" transform="translate(1561.479 -300.943)">
      <path id="Path_160" data-name="Path 160" d="M484.933,257.162c-.336-.6-.778-1.361-1.237-2.192a14.131,14.131,0,0,1-13.432-1.1,13.55,13.55,0,0,1-5.762-7.688,14.01,14.01,0,0,1,24.6-12.46,14.222,14.222,0,0,1-3.128,19.972c.442.778.884,1.573,1.237,2.156a4.639,4.639,0,0,1,1.555.212c.177.106.071.725.071.937a22.444,22.444,0,0,1,1.8,2.262c1.591,2.686,3.111,5.408,4.648,8.13.106.177.177.371.3.619-1.5.848-2.969,1.7-4.525,2.58-.8-1.379-1.538-2.7-2.3-4.03-.937-1.644-1.909-3.252-2.775-4.931a17.861,17.861,0,0,1-.884-2.492c-.194-.159-.76-.353-.813-.672C484.244,258.169,484.633,257.745,484.933,257.162Zm-7-26.936a11.939,11.939,0,1,0,11.948,11.895A11.926,11.926,0,0,0,477.934,230.226Z" transform="translate(-1074.066 2603)" fill="#1d61f9"/>
      <path id="Path_161" data-name="Path 161" d="M388.308,283.823c0,.954-.018,1.8,0,2.651.018.583-.406.548-.778.6a7.693,7.693,0,0,0-6.575,7.777,7.775,7.775,0,0,0,12.885,5.762c.336-.283.636-.6.972-.9.866.53,1.714,1.06,2.651,1.644a6.662,6.662,0,0,1-.778.919c-.53.424-.46.813-.141,1.343,1.06,1.785,1.237,1.732-.742,2.81-.6.318-1.184.654-1.767,1.007-.548.318-1.025.23-1.219-.353-.513-1.538-1.449-1.82-3-1.449-1.538.371-1.591.212-2.05,1.8-.283.954-.513,1.078-1.467.831-.9-.247-1.8-.548-2.722-.778-.6-.159-.937-.513-.672-1.078.742-1.5.212-2.386-1.131-3.217-1.29-.813-1.2-.937-2.563-.194-1.078.583-1.184.566-1.767-.495-.442-.76-.848-1.555-1.308-2.3-.371-.6-.318-1.113.353-1.361,1.414-.513,1.785-1.343,1.414-2.846-.406-1.626-.23-1.7-1.873-2.156-.813-.23-1.025-.636-.778-1.432.3-.884.548-1.8.778-2.722.177-.689.6-1.007,1.237-.689,1.343.654,2.033.177,2.987-.937.99-1.167,1.007-1.98.177-3.058-.407-.513-.3-.972.3-1.308.9-.495,1.8-.99,2.7-1.5.619-.353,1.131-.23,1.343.424.477,1.379,1.326,1.873,2.722,1.343A1.556,1.556,0,0,1,388.308,283.823Z" transform="translate(-1001 2558.682)" fill="#1d61f9"/>
      <path id="Path_162" data-name="Path 162" d="M627.354,462.6a2.546,2.546,0,0,1-.76,3.729,2.578,2.578,0,0,1-3.694-1.2C624.385,464.279,625.869,463.431,627.354,462.6Z" transform="translate(-1204.963 2410.005)" fill="#1d61f9"/>
    </g>
  </g>
</svg>
