<svg xmlns="http://www.w3.org/2000/svg" width="98" height="98" viewBox="0 0 98 98">
  <g id="Group_4428" data-name="Group 4428" transform="translate(-1357 -2176)">
    <circle id="Ellipse_16" data-name="Ellipse 16" cx="49" cy="49" r="49" transform="translate(1357 2176)" fill="#fd1cc0" opacity="0.09"/>
    <g id="Group_4421" data-name="Group 4421" transform="translate(-1020 -480.949)">
      <path id="Path_149" data-name="Path 149" d="M636.106,317.13c1.1-1.88,2.208-2.655,4.064-2.631,6.625.047,5.85.023,5.873,5.967V343.4c0,2.4-.611,3.007-3.078,3.007H600.725c-2.537,0-3.1-.564-3.1-3.148,0-8.669.023-17.338-.023-25.984,0-1.762.681-2.678,2.42-2.678,8.716-.023,17.456-.023,26.172-.023a2.127,2.127,0,0,1,.54.188c-.564,1.762-1.621,2.42-3.524,2.4-6.954-.094-13.885.023-20.839-.023-1.645-.023-2.232.47-2.208,2.161q.106,9.938,0,19.876c0,1.386.54,1.715,1.809,1.715,13.251-.023,26.5-.047,39.752,0,1.41,0,1.715-.564,1.715-1.809-.023-6.7-.023-13.368.047-20.064.023-1.433-.564-1.9-1.927-1.856C639.889,317.177,638.174,317.13,636.106,317.13Z" transform="translate(1804.4 2375.535)" fill="#fd1cc0"/>
      <path id="Path_150" data-name="Path 150" d="M688.526,308.56c-.658-.54-1.222-1.01-1.927-1.574,1.245-1.739,2.42-3.383,3.571-5.028,3.618-5.145,7.236-10.29,10.9-15.412,1.5-2.114,3.642-2.772,4.981-1.668,1.363,1.1,1.175,3.313-.587,5.239C699.9,296.226,694.282,302.31,688.526,308.56Z" transform="translate(1736.31 2398.6)" fill="#fd1cc0"/>
      <path id="Path_151" data-name="Path 151" d="M685.81,463.7H672.7c.658-1.433,1.292-2.8,2.067-4.44,2.608,0,5.521-.047,8.434.047.4,0,.916.517,1.128.916C684.893,461.306,685.293,462.457,685.81,463.7Z" transform="translate(1746.944 2264.79)" fill="#fd1cc0"/>
      <path id="Path_152" data-name="Path 152" d="M654.7,389.962c1.95.164,2.7-1.034,3.289-2.584.869-2.4,3.054-2.89,4.887-1.151,1.363,1.292,1.222,2.678-.587,3.148a71.9,71.9,0,0,1-7.424,1.222A6.3,6.3,0,0,1,654.7,389.962Z" transform="translate(1760.715 2321.45)" fill="#fd1cc0"/>
    </g>
  </g>
</svg>
