<svg xmlns="http://www.w3.org/2000/svg" width="98" height="98" viewBox="0 0 98 98">
  <g id="Group_4429" data-name="Group 4429" transform="translate(-1357 -2504)">
    <circle id="Ellipse_16" data-name="Ellipse 16" cx="49" cy="49" r="49" transform="translate(1357 2504)" fill="#a61cfd" opacity="0.09"/>
    <g id="Group_4424" data-name="Group 4424" transform="translate(2390.82 -54.568)">
      <path id="Path_165" data-name="Path 165" d="M210.111,230.129h6.37V203.193a4.721,4.721,0,0,1,3.435-4.783,4.5,4.5,0,0,1,1.076-.141c1.848-.011,3.7-.011,5.544-.011a.641.641,0,0,1,.185.022c-.141,1.348-.283,2.674-.435,4.087h-5.544v27.675h16.381c.054.2.087.348.13.511a2.594,2.594,0,0,0,2.467,2.011c1.978.022,3.946.022,5.924,0a2.618,2.618,0,0,0,2.5-2.044c.033-.141.065-.283.109-.467h16.381V202.4h-5.609v-4.076a.335.335,0,0,1,.13-.054c1.826,0,3.663-.076,5.489.022a4.546,4.546,0,0,1,4.228,4.283c.033.391.022.794.022,1.2q0,13.044-.011,26.088c0,.054.011.109.022.25h6.283a4.7,4.7,0,0,1-4.522,5.576q-27.979.016-55.97,0a4.627,4.627,0,0,1-4.6-4.565C210.1,230.825,210.111,230.52,210.111,230.129Z" transform="translate(-1227 2394.648)" fill="#a61cf9"/>
      <path id="Path_166" data-name="Path 166" d="M365.2,332.468c.141-.12.217-.185.3-.25a1.719,1.719,0,0,1,.337-.293c2.141-1.087,4.283-2.174,6.446-3.239a1.685,1.685,0,0,1,.728-.152q11.087-.016,22.164,0c1.3,0,1.913.63,1.913,1.946v3.8c0,1.348-.554,1.913-1.913,1.913-7.066,0-14.12-.011-21.186.022a5.5,5.5,0,0,1-2.783-.652c-1.848-.989-3.739-1.9-5.609-2.848C365.461,332.642,365.33,332.555,365.2,332.468Zm2.446-.109c.326.185.511.293.7.391,1.337.685,2.674,1.37,4.011,2.044a2.977,2.977,0,0,0,.522.185,2.009,2.009,0,0,0,.141-.543c.011-1.37.011-2.75.011-4.12a4.643,4.643,0,0,0-.1-.641C371.157,330.577,369.472,331.435,367.646,332.359Z" transform="translate(-1365.24 2278.526)" fill="#a61cf9"/>
      <path id="Path_167" data-name="Path 167" d="M411.241,144.244h-1.6c-.3,0-.424-.141-.413-.435V130.6a4.373,4.373,0,0,0-2.261-4.163,4.56,4.56,0,0,0-2.054-.576c-3.391-.054-6.772-.022-10.163-.022-.75,0-.783.043-.794.815a18.611,18.611,0,0,1-.13,3.4,4.7,4.7,0,0,1-4.511,3.707c-.88.054-1.772.12-2.663.087-.62-.022-.728.261-.728.783.011,1.739,0,3.478,0,5.218,0,1.576,0,3.152.011,4.728a.647.647,0,0,1-.424.707c-.511.217-1,.478-1.6.772v-.674c0-3.446.065-6.881-.033-10.327a4.452,4.452,0,0,1,1.652-3.7c1.326-1.185,2.576-2.478,3.848-3.718,1.1-1.076,2.152-2.185,3.3-3.207a2.446,2.446,0,0,1,1.457-.6c3.75-.043,7.5-.076,11.25.011a5.621,5.621,0,0,1,3.9,1.794,6.646,6.646,0,0,1,1.946,4.989c-.022,4.315,0,8.62,0,12.935Z" transform="translate(-1381.889 2461)" fill="#a61cf9"/>
      <path id="Path_168" data-name="Path 168" d="M453.752,237.609v1.207H438.305c-.033-.043-.065-.065-.076-.1-.13-1.141-.13-1.141,1.022-1.141H452.98A6.371,6.371,0,0,1,453.752,237.609Z" transform="translate(-1430.28 2359.591)" fill="#a61cf9"/>
      <path id="Path_169" data-name="Path 169" d="M515.886,282.35c-1.087,0-2.174-.033-3.25.011-.533.022-.533-.25-.544-.63-.011-.4.065-.63.554-.63,2.174.022,4.337.022,6.511,0,.533,0,.511.3.511.663s-.033.609-.522.587C518.06,282.317,516.973,282.35,515.886,282.35Z" transform="translate(-1496.165 2320.796)" fill="#a61cf9"/>
      <path id="Path_170" data-name="Path 170" d="M441.527,282.339c-.848,0-1.7-.022-2.544.011-.446.011-.457-.239-.435-.554.022-.294-.13-.7.413-.7q2.576.016,5.152,0c.587,0,.4.424.435.728.033.348-.054.533-.467.522-.859-.022-1.707,0-2.554-.011Z" transform="translate(-1430.61 2320.796)" fill="#a61cf9"/>
    </g>
  </g>
</svg>
