<svg id="Group_4459" data-name="Group 4459" xmlns="http://www.w3.org/2000/svg" width="98.281" height="98.296" viewBox="0 0 98.281 98.296">
  <path id="Path_4545" data-name="Path 4545" d="M350.8,101.24A49.14,49.14,0,1,1,399.926,150.4,49.178,49.178,0,0,1,350.8,101.24Zm2.424.03a46.739,46.739,0,1,0,46.717-46.79A46.731,46.731,0,0,0,353.224,101.27Z" transform="translate(-350.8 -52.1)" fill="#ff005d"/>
  <path id="Path_4547" data-name="Path 4547" d="M497.782,236.918c-.9,1.286-1.67,2.424-2.512,3.517a1.378,1.378,0,0,1-.975.3c-8.129.03-16.257.03-24.385.044-2.734,0-5.468.015-8.2.015-.975,0-.99.015-.99.99q-.022,12.037-.015,24.09c0,2.039-.015,4.094,0,6.133,0,1.153.015,1.153,1.108,1.153h56.959c1.049,0,1.079,0,1.079-1.049.015-5.143.015-10.3.03-15.444,0-4.848.015-9.71,0-14.557,0-1.3-.015-1.315-1.286-1.315h-9.06c-.03-.059-.074-.118-.1-.177.606-.695,1.241-1.36,1.8-2.084a3.85,3.85,0,0,1,3.68-1.626,45.253,45.253,0,0,0,5.838.015,2.906,2.906,0,0,1,3.03,3.015q-.067,19.109,0,38.2a2.884,2.884,0,0,1-2.823,2.926c-1.507,0-3-.015-4.508-.015q-27.777,0-55.554.015c-.443,0-.887,0-1.33-.015a2.711,2.711,0,0,1-2.749-2.838q0-19.22-.015-38.426a2.779,2.779,0,0,1,2.719-2.852h.369q18.245,0,36.5-.015Z" transform="translate(-441.135 -209.577)" fill="#ff005d"/>
  <path id="Path_4548" data-name="Path 4548" d="M680.735,174.293a7.348,7.348,0,0,1-2.217,4.345q-6.628,7.2-13.227,14.424c-3.1,3.4-6.178,6.828-9.267,10.242-.562.621-.887.68-1.581.163-.473-.355-.916-.739-1.36-1.123-.68-.591-.695-.842-.177-1.552q3.924-5.453,7.833-10.922,6.008-8.468,11.956-16.952a6.258,6.258,0,0,1,3.4-2.453C678.607,169.727,680.735,171.323,680.735,174.293Z" transform="translate(-607.948 -152.819)" fill="#ff005d"/>
  <path id="Path_4549" data-name="Path 4549" d="M614.4,561.24a5.108,5.108,0,0,1,.665-.739,5.218,5.218,0,0,0,2.483-4.581c.059-1.02.118-1.02,1.153-1.02,3.917,0,7.818.015,11.735.015h.961a14.422,14.422,0,0,0,.842,3.517,14.713,14.713,0,0,0,2.424,2.749,7.082,7.082,0,0,1-1.049.177q-9.2.022-18.385.015A7.016,7.016,0,0,1,614.4,561.24Z" transform="translate(-575.442 -480.591)" fill="#ff005d"/>
  <path id="Path_4550" data-name="Path 4550" d="M574.615,397.958c.768-.074,1.537-.118,2.306-.207a3.063,3.063,0,0,0,2.542-1.877c.355-.783.621-1.6.931-2.409a3.2,3.2,0,0,1,4.315-2.2,5.682,5.682,0,0,1,3.192,2.261,2.033,2.033,0,0,1-.591,3.222,10.821,10.821,0,0,1-4.434,1.493,23.494,23.494,0,0,1-7.05.177,11.355,11.355,0,0,1-1.227-.281C574.6,398.076,574.615,398.017,574.615,397.958Z" transform="translate(-541.524 -340.97)" fill="#ff005d"/>
</svg>
