<svg id="Group_4460" data-name="Group 4460" xmlns="http://www.w3.org/2000/svg" width="114.237" height="98.295" viewBox="0 0 114.237 98.295">
  <path id="Path_4551" data-name="Path 4551" d="M438.2,148.3H338.113a1.6,1.6,0,0,0-.284-.053,14.05,14.05,0,0,1-12.445-11.166c-.124-.6-.2-1.207-.284-1.811V63.03a1.993,1.993,0,0,0,.053-.32A14.069,14.069,0,0,1,336.3,50.284c.586-.124,1.172-.2,1.758-.284h2.148a1.6,1.6,0,0,0,.284.053A14.06,14.06,0,0,1,352.865,61.06c.107.479.178.976.266,1.491h84.75a1.47,1.47,0,0,1,1.331.905c.036.071.089.16.124.231v83.49A1.96,1.96,0,0,1,438.2,148.3Zm-1.864-82.744H353.184v67.406c0,.408.018.834,0,1.243a1.5,1.5,0,0,1-1.473,1.544,1.515,1.515,0,0,1-1.527-1.527,13.391,13.391,0,0,0-.107-1.473,11.059,11.059,0,1,0-10.953,12.587h97.195Q436.346,105.414,436.337,65.551Zm-86.135,60V64.539a15.852,15.852,0,0,0-.178-2.432A11.057,11.057,0,0,0,328.082,64.1v61.477a14.132,14.132,0,0,1,22.12-.018Z" transform="translate(-325.1 -50)" fill="#007fff"/>
  <path id="Path_4555" data-name="Path 4555" d="M962.2,598.436a1.894,1.894,0,0,0,1.136-1.136v1.136Z" transform="translate(-849.099 -500.141)" fill="#007fff"/>
  <path id="Path_4558" data-name="Path 4558" d="M577.816,215.527c.621.586,1.225,1.136,1.846,1.7q9,8.335,18,16.687c.55.515,1.136.994,1.633,1.562a6.747,6.747,0,0,1-9.941,9.125c-3.977-4.349-8.006-8.663-12.018-12.995l-7.3-7.882c-.053-.071-.124-.142-.2-.231-.337.32-.639.621-.941.923L550,243.328c-.533.533-1.065,1.1-1.615,1.615a6.636,6.636,0,0,1-9.178-9.586c4.243-4.225,8.45-8.45,12.675-12.675L560.561,214a3.049,3.049,0,0,1,.249-.2c-.107-.124-.16-.2-.231-.284-3.036-3.391-6.284-6.586-9.5-9.8a.474.474,0,0,0-.515-.142,6.822,6.822,0,0,1-3.728-.036,6.01,6.01,0,0,1-3.444-2.982,14.4,14.4,0,0,1-1.74-6.16c-.053-1.047-.106-2.077-.178-3.124a4.96,4.96,0,0,0-3.515-4.687,1.467,1.467,0,0,1-1.03-1.74,1.438,1.438,0,0,1,1.562-1.172,46.773,46.773,0,0,1,12.622,2.911,13.6,13.6,0,0,1,4.935,3.284,7.048,7.048,0,0,1,1.793,6.391.454.454,0,0,0,.142.462c1.953,1.953,3.906,3.923,5.876,5.858,1.349,1.314,2.769,2.574,4.261,3.977a2.1,2.1,0,0,1,.249-.391c5.095-5.095,10.19-10.208,15.285-15.285a4.309,4.309,0,0,1,1.012-.657c4.6-2.29,9.214-4.562,13.829-6.852a1.457,1.457,0,0,1,2.166,1.1,1.921,1.921,0,0,1-.16.941q-2.53,5.166-5.1,10.314c-.639,1.3-1.278,2.592-1.935,3.888a2.333,2.333,0,0,1-.426.6q-5.672,5.672-11.326,11.344l-3.728,3.728A1.614,1.614,0,0,1,577.816,215.527Zm.284,12.533c.213.231.408.444.621.657,4.261,4.6,8.539,9.178,12.764,13.794a3.786,3.786,0,0,0,5.4.178,3.7,3.7,0,0,0,.018-5.379c-.355-.337-.728-.675-1.083-1.012l-11.752-10.9c-.568-.533-1.154-1.065-1.686-1.562C580.923,225.238,579.538,226.64,578.1,228.06Zm-15.232-12.018q-8.148,8.148-16.261,16.244l5.059,5.059,16.066-16.066-1.42-1.527c-.107.107-.213.2-.3.284l-7.421,7.421a1.541,1.541,0,0,1-2.166.089,1.5,1.5,0,0,1,.035-2.184c2.113-2.113,4.225-4.243,6.355-6.355.479-.479.976-.941,1.473-1.438C563.792,217.018,563.312,216.5,562.869,216.042Zm12.675-2.627q7.216-7.216,14.362-14.344l-5.042-5.042-14.539,14.539c.5.462,1.012.923,1.527,1.42a3.255,3.255,0,0,0,.248-.249l5.823-5.823a1.5,1.5,0,1,1,2.112,2.113c-1.651,1.651-3.3,3.3-4.971,4.953-.337.337-.71.657-1.083,1.012C574.567,212.527,575.065,212.989,575.544,213.415Zm-15.569-4.9q8.015,8.654,16.031,17.309l4.083-4.083q-8.654-8.015-17.291-16.03C561.857,206.651,560.934,207.574,559.975,208.515Zm-16.457-21.037a.731.731,0,0,0,.036.16,9.892,9.892,0,0,1,.905,3.55c.089,1.225.107,2.45.231,3.675a10.64,10.64,0,0,0,1.473,4.545,2.852,2.852,0,0,0,1.544,1.3,4.582,4.582,0,0,0,2.716-.178c.071-.018.124-.089.177-.142l4.065-4.065a.594.594,0,0,0,.178-.3,4.074,4.074,0,0,0-.639-3.675,8.733,8.733,0,0,0-3.071-2.432,25.656,25.656,0,0,0-6.142-2.113C544.513,187.691,544.033,187.6,543.518,187.478Zm.87,46.938c-.018.018-.053.036-.071.053-1.047,1.047-2.13,2.077-3.142,3.16a3.642,3.642,0,0,0,5.29,5.006c.976-.959,1.935-1.935,2.894-2.894.071-.071.124-.142.16-.178C547.8,237.824,546.11,236.12,544.388,234.416Zm47.328-37.9c1.385-2.8,2.787-5.61,4.172-8.415-.018-.018-.035-.035-.053-.035-2.8,1.385-5.61,2.787-8.415,4.172C588.858,193.656,590.278,195.076,591.716,196.514ZM560.578,203.6l-4.438-4.438c-.888.888-1.793,1.775-2.7,2.663,1.491,1.491,2.982,2.965,4.474,4.438Z" transform="translate(-499.297 -159.553)" fill="#007fff"/>
</svg>
