<svg id="Group_4461" data-name="Group 4461" xmlns="http://www.w3.org/2000/svg" width="101.833" height="98.295" viewBox="0 0 101.833 98.295">
  <path id="Path_4560" data-name="Path 4560" d="M567.828,224.568c0,1.3-.065,2.963.022,4.607a5.075,5.075,0,0,0,2.487,4.261c1.557.952,3.244,1.709,4.845,2.617a2.2,2.2,0,0,1,.865,1.19c.26.779.238,1.644.5,2.423a2.607,2.607,0,0,1-.865,2.985c-.779.735-1.406,1.644-2.185,2.4-2.185,2.1-2.444,4.5-1.276,7.159.519,1.19.93,2.423,1.514,3.591a2.049,2.049,0,0,1-.195,2.4,2.731,2.731,0,0,0-.476.844c-.627,1.968-2.12,2.6-4.045,2.7a16.352,16.352,0,0,0-3.85.519,5.25,5.25,0,0,0-3.547,3.028c-.649,1.644-1.081,3.353-1.579,5.04a2.383,2.383,0,0,1-1.363,1.492,5.49,5.49,0,0,1-7.03-.8,11.108,11.108,0,0,0-1.19-.757,5.581,5.581,0,0,0-6.705.022c-1.06.692-2.12,1.341-3.2,2.012a8.334,8.334,0,0,1-.822.5c-.995.5-5.061-1.146-5.407-2.206-.606-1.774-1.06-3.612-1.8-5.321a5.127,5.127,0,0,0-3.958-3.093c-1.8-.324-3.634-.541-5.429-.822a1.411,1.411,0,0,1-.908-.454c-.735-1.146-1.428-2.336-2.055-3.547a1.558,1.558,0,0,1,.13-1.1c.627-1.6,1.363-3.18,1.925-4.8a5.344,5.344,0,0,0-.952-5.429c-1.081-1.3-2.293-2.487-3.353-3.807a4.916,4.916,0,0,1-.541-1.73c-.022-.087.065-.216.065-.324a5.186,5.186,0,0,1,4-5.343c.476-.151.865-.519,1.341-.692a5.141,5.141,0,0,0,3.244-3.655,10.248,10.248,0,0,0,.065-4.369,4.706,4.706,0,0,1,1.968-5.083,3.814,3.814,0,0,1,3.872-.908,18.521,18.521,0,0,0,3.591.714,9.69,9.69,0,0,0,2.617-.151,4.824,4.824,0,0,0,3.309-2.379,25.351,25.351,0,0,1,2.574-3.331,3.037,3.037,0,0,1,1.622-.8c2.682-.519,4.759.3,6.013,2.855a13.534,13.534,0,0,0,.973,1.3c1.644,2.444,3.893,3.071,6.662,2.358,1.363-.346,2.747-.584,4.11-.952a1.549,1.549,0,0,1,1.644.433,18.034,18.034,0,0,0,1.968,1.687A2.041,2.041,0,0,1,567.828,224.568ZM547.02,257.142a13.054,13.054,0,1,0-13.086-13.021A13.062,13.062,0,0,0,547.02,257.142Z" transform="translate(-476.94 -201.762)" fill="#fe7c28"/>
  <path id="Path_4561" data-name="Path 4561" d="M393.734,386.2c-.065.757-.13,1.514-.173,2.25a3.8,3.8,0,0,0,2.358,4.066c.5.216.952.5,1.428.757a3.4,3.4,0,0,1,2.055,3.785,2.125,2.125,0,0,1-.476.93c-.584.692-1.168,1.363-1.8,2.012a3.691,3.691,0,0,0-.779,4.348,15.345,15.345,0,0,0,.606,1.492,3.164,3.164,0,0,1-.281,3.872,2.226,2.226,0,0,1-1.665,1.146c-.779.065-1.579.195-2.358.281a3.9,3.9,0,0,0-3.591,2.92,11.255,11.255,0,0,0-.454,1.449,3.053,3.053,0,0,1-2.552,2.769,2.344,2.344,0,0,1-2.228-.26c-.627-.476-1.319-.865-1.99-1.3a3.8,3.8,0,0,0-4.434,0,12.69,12.69,0,0,0-1.449.93,2.938,2.938,0,0,1-3.374.433,2.513,2.513,0,0,1-1.774-1.925,18.675,18.675,0,0,0-.757-2.358,3.523,3.523,0,0,0-2.812-2.509c-1.125-.238-2.271-.324-3.418-.519-1.146-.216-2.444-2.6-2.033-3.677.324-.865.671-1.752,1.038-2.617a3.884,3.884,0,0,0-.8-4.542,6.352,6.352,0,0,0-.735-.779c-1.644-1.168-1.709-2.747-1.146-4.456a1.845,1.845,0,0,1,.714-.865c.8-.476,1.644-.908,2.487-1.319a3.868,3.868,0,0,0,2.336-4.088,4.287,4.287,0,0,0-.065-.757c-.562-2.076.368-3.439,2.1-4.412a1.416,1.416,0,0,1,.887-.151c.952.151,1.925.324,2.855.562a3.8,3.8,0,0,0,4.412-1.622,9.924,9.924,0,0,0,.714-.952c.865-1.86,2.444-1.99,4.153-1.774a1.734,1.734,0,0,1,.952.562c.584.671,1.146,1.406,1.665,2.12a3.837,3.837,0,0,0,4.5,1.644c.454-.13.952-.13,1.363-.281a2.979,2.979,0,0,1,3.655.93,16.133,16.133,0,0,1,1.125,1.752A.811.811,0,0,0,393.734,386.2Zm-23.771,12.61a9.68,9.68,0,1,0,9.777-9.517A9.769,9.769,0,0,0,369.963,398.806Z" transform="translate(-353.46 -331.249)" fill="#fe7c28"/>
  <path id="Path_4562" data-name="Path 4562" d="M456.912,186.052c.865-.627,1.73-1.255,2.682-1.947.973,1.276,1.947,2.466,2.812,3.742.108.151-.195.757-.476.973-2.552,1.99-5.148,3.937-7.743,5.9-1.125.844-2.228,1.687-3.461,2.6a7.37,7.37,0,0,1-.476-.887c-1.536-4-3.05-8-4.629-11.983-.324-.8-.173-1.168.627-1.428,1.017-.346,2.033-.735,3.028-1.168.627-.281.93-.065,1.125.519.216.627.454,1.255.8,2.163.3-.562.5-.844.627-1.146,5.84-13.324,15.855-21.716,30-25,3.2-.735,6.575-.692,9.863-1.017.757-.065,1.038.26.973.995a23.317,23.317,0,0,0-.151,3.007c.022.973-.433,1.1-1.254,1.1a37.467,37.467,0,0,0-11.377,1.687,36.331,36.331,0,0,0-22.819,20.527,11.023,11.023,0,0,0-.411,1.19A1.8,1.8,0,0,1,456.912,186.052Z" transform="translate(-420.574 -157.363)" fill="#fe7c28"/>
  <path id="Path_4563" data-name="Path 4563" d="M376.688,549.936a30.2,30.2,0,0,1-19.9,7.484c-7.354.065-14.211-1.449-20.072-6.294-.065.065-.151.13-.216.195.13.649.238,1.3.411,1.947.195.735-.043,1.146-.822,1.3-3.18.584-2.466,1.146-3.266-1.947-.757-2.963-1.449-5.948-2.185-8.911-.087-.368-.13-.757-.238-1.276,1.168,0,2.228-.043,3.288,0,2.812.108,5.6.281,8.414.368.822.022,1.146.238,1.1,1.125-.086,2.574-.043,2.574-2.509,2.661-.238,0-.5.065-.995.108.433.433.692.779,1.038,1.06a21.391,21.391,0,0,0,11.031,4.283,26.049,26.049,0,0,0,14.405-1.709,51.805,51.805,0,0,0,6.4-3.785c.584-.368.887-.433,1.341.108C374.784,547.73,375.671,548.746,376.688,549.936Z" transform="translate(-330.4 -459.126)" fill="#fe7c28"/>
  <path id="Path_4564" data-name="Path 4564" d="M679.1,164.722c.216-1.492.346-2.66.606-3.828a1.136,1.136,0,0,1,.887-.606c2.509.584,5.018,1.233,7.484,1.947.216.065.454.714.368.995a25.5,25.5,0,0,1-1.276,3.309,1.155,1.155,0,0,1-.995.411c-2.141-.5-4.239-1.038-6.359-1.622C679.489,165.263,679.251,164.852,679.1,164.722Z" transform="translate(-603.677 -159.653)" fill="#fe7c28"/>
  <path id="Path_4565" data-name="Path 4565" d="M732.317,183.928c-1.319-.714-2.466-1.3-3.569-1.968a.871.871,0,0,1-.324-.8c.519-1.233,1.081-2.444,1.687-3.612a.818.818,0,0,1,.757-.238c1.363.692,2.7,1.449,4.2,2.271C734.091,181.116,733.226,182.5,732.317,183.928Z" transform="translate(-642.315 -172.975)" fill="#fe7c28"/>
  <path id="Path_4566" data-name="Path 4566" d="M547.008,538.676c-.995,1.255-1.9,2.4-2.855,3.5a.88.88,0,0,1-.865,0,34.22,34.22,0,0,1-2.769-2.552,1.157,1.157,0,0,1-.022-1.038,5.013,5.013,0,0,1,.8-1.017c1.341-1.752,1.341-1.752,3.244-.519C545.3,537.53,546.078,538.049,547.008,538.676Z" transform="translate(-494.967 -454.247)" fill="#fe7c28"/>
  <path id="Path_4567" data-name="Path 4567" d="M556.5,515.242v-.3c1.146-2.985,1.146-3.007,4.174-1.947,2.12.757,2.314.216,1.146,2.7-.952,2.033-.5,2.076-2.7.93C558.23,516.215,557.365,515.717,556.5,515.242Z" transform="translate(-507.595 -435.572)" fill="#fe7c28"/>
  <path id="Path_4568" data-name="Path 4568" d="M761.644,197.6c.216.065.26.065.3.087,2.877,1.882,2.877,1.882.584,4.369-1.579,1.687-1.839,1.709-3.417-.043a.934.934,0,0,1-.087-.887C759.849,199.914,760.757,198.768,761.644,197.6Z" transform="translate(-666.257 -188.897)" fill="#fe7c28"/>
  <path id="Path_4569" data-name="Path 4569" d="M781.758,218.747c-1.255,1.081-2.4,2.055-3.547,3.028-.584.5-.865-.065-1.1-.389-.281-.389-1.125-.714-.476-1.406.93-.952,1.882-1.882,2.877-2.747a.832.832,0,0,1,.865.043A11.69,11.69,0,0,1,781.758,218.747Z" transform="translate(-679.924 -204.204)" fill="#fe7c28"/>
  <path id="Path_4572" data-name="Path 4572" d="M615.264,319.986a8.422,8.422,0,0,1,8.544-8.587,8.566,8.566,0,1,1-.065,17.131A8.438,8.438,0,0,1,615.264,319.986Z" transform="translate(-553.64 -278.081)" fill="#fe7c28"/>
  <path id="Path_4573" data-name="Path 4573" d="M437.2,450.728a5.451,5.451,0,1,1-10.9.022,5.451,5.451,0,0,1,10.9-.022Z" transform="translate(-405.557 -383.019)" fill="#fe7c28"/>
</svg>
