<svg id="Group_4462" data-name="Group 4462" xmlns="http://www.w3.org/2000/svg" width="72.384" height="98.295" viewBox="0 0 72.384 98.295">
  <path id="Path_4575" data-name="Path 4575" d="M387.754,142.552c.279-1.1.508-2.2.836-3.278a12.655,12.655,0,0,0,.262-6.983,11.291,11.291,0,0,0-1.934-3.836c-2.147-2.967-1.557-6.311.1-9.277a4.19,4.19,0,0,1,2.065-1.688c4.753-2.18,7.442-6.016,8.753-10.933a7.746,7.746,0,0,1,6.294-5.917,10.533,10.533,0,0,1,2.672.18,8.723,8.723,0,0,1,1.557.41,12.621,12.621,0,0,0,11.064-1.639,8.692,8.692,0,0,1,8.556-.656,7.1,7.1,0,0,1,3.573,3.442c.426.787.869,1.59,1.36,2.344a12.11,12.11,0,0,0,7.294,4.885,25.9,25.9,0,0,1,2.639.836,7.447,7.447,0,0,1,4.475,7.524c-.2,1.623-.59,3.213-.77,4.835a12.373,12.373,0,0,0,.82,6.884,22.758,22.758,0,0,0,1.754,2.9,6.057,6.057,0,0,1,.934,5,22.072,22.072,0,0,1-1.279,3.8,6.231,6.231,0,0,1-3.164,2.836,12.515,12.515,0,0,0-4.163,2.918,10.5,10.5,0,0,0-2.573,5.458c-.492,3.7-2.852,5.753-6.016,7.163a5.612,5.612,0,0,1-4.426.115,12.411,12.411,0,0,0-4.868-1.033,9.926,9.926,0,0,0-6.786,2.573,5.449,5.449,0,0,1-5.426,1.377,43.289,43.289,0,0,1-4.753-1.508,5.136,5.136,0,0,1-3.114-3.262,11.145,11.145,0,0,0-4.9-5.9,9.548,9.548,0,0,0-3.983-1.262,6.629,6.629,0,0,1-5.212-3.639,8.975,8.975,0,0,1-1.492-4.59A.335.335,0,0,0,387.754,142.552Zm53.862-12.425a23.756,23.756,0,1,0-22.964,23.948A23.749,23.749,0,0,0,441.616,130.127Z" transform="translate(-382.967 -98.118)" fill="#ffc83a"/>
  <path id="Path_4576" data-name="Path 4576" d="M647.863,511.813c-5.2-2.459-10.409-4.9-15.687-7.409q-2.508,8.433-5.016,16.8h-.131c-3.688-8.491-7.376-16.981-11.13-25.6a40.414,40.414,0,0,0,21.341-8.8c3.606,8.36,7.163,16.637,10.72,24.915Z" transform="translate(-575.577 -423.09)" fill="#ffc83a"/>
  <path id="Path_4577" data-name="Path 4577" d="M385.75,510.508c-5.278,2.491-10.49,4.95-15.85,7.474,3.622-8.048,7.179-15.965,10.753-23.882,9.622,6.327,10.7,6.343,21.161,8.245-3.639,8.343-7.278,16.67-10.982,25.144C389.111,521.752,387.439,516.179,385.75,510.508Z" transform="translate(-369.9 -429.194)" fill="#ffc83a"/>
  <path id="Path_4579" data-name="Path 4579" d="M477.268,168.7A20.669,20.669,0,1,1,456.6,189.4,20.717,20.717,0,0,1,477.268,168.7Zm14.818,13.769c-1.311-1.311-2.606-2.623-4.016-4.032-4.54,4.557-9.1,9.146-13.736,13.8l-5.491-5.589c-1.36,1.344-2.7,2.655-3.983,3.9q4.794,4.794,9.573,9.589Q483.235,191.336,492.086,182.469Z" transform="translate(-442.388 -157.131)" fill="#ffc83a"/>
</svg>
