<svg id="Group_4458" data-name="Group 4458" xmlns="http://www.w3.org/2000/svg" width="106.752" height="98.296" viewBox="0 0 106.752 98.296">
  <path id="Path_4538" data-name="Path 4538" d="M512.272,169.6c0-1.341.021-2.6,0-3.856a6.574,6.574,0,0,0-6.873-6.852q-22.694-.031-45.368,0c-5.763,0-11.525-.042-17.288.042a6.393,6.393,0,0,0-6.245,5.218,14.507,14.507,0,0,0-.168,3.018v65.066c0,4.3,2.829,7.041,7.1,7.041q30.741,0,61.5,0a7.113,7.113,0,0,0,4.547-1.257,6.586,6.586,0,0,0,2.787-5.574c-.021-4.862,0-9.7,0-14.564v-1.236c3-.419,5.909-.838,8.969-1.278v1.09c0,6.035,0,12.091-.021,18.126a13.351,13.351,0,0,1-13.663,13.642H441.024a13.339,13.339,0,0,1-13.684-13.726q-.031-35.362,0-70.724a13.37,13.37,0,0,1,13.81-13.83q33.256-.031,66.533,0a13.353,13.353,0,0,1,13.558,13.537c0,1.4.021,2.787-.042,4.191-.021.293-.356.8-.587.838-2.577.419-5.176.754-7.774,1.132A3.611,3.611,0,0,1,512.272,169.6Z" transform="translate(-427.325 -149.925)" fill="#00ad79"/>
  <path id="Path_4539" data-name="Path 4539" d="M724.124,306.4c4.233,4.254,8.382,8.424,12.636,12.678-1.09,1.069-2.263,2.2-3.416,3.353q-12.636,12.636-25.272,25.251A3.759,3.759,0,0,1,705.2,348.9c-3.1-.042-6.224,0-9.325-.021-1.467,0-1.676-.23-1.676-1.739v-9.43a3.382,3.382,0,0,1,1.027-2.536q14.27-14.239,28.541-28.5A2.632,2.632,0,0,0,724.124,306.4Zm-1.886,5.553a7.742,7.742,0,0,0-1.467.985q-6.1,6.035-12.154,12.112a2.237,2.237,0,1,0,3.164,3.122q4.055-4.023,8.068-8.047c1.425-1.425,2.871-2.85,4.3-4.3a2.142,2.142,0,0,0,.5-2.6A2.4,2.4,0,0,0,722.238,311.953Z" transform="translate(-638.276 -273.61)" fill="#00ad79"/>
  <path id="Path_4540" data-name="Path 4540" d="M524.712,265.369H495.9a4.374,4.374,0,0,1-4.065-2.305,4.181,4.181,0,0,1,.1-4.484,4.384,4.384,0,0,1,3.94-2.158h7.02q25.209,0,50.4-.021a4.7,4.7,0,0,1,4.38,2.137,4.181,4.181,0,0,1,.1,4.484,4.3,4.3,0,0,1-3.939,2.326H535.818C532.13,265.369,528.421,265.369,524.712,265.369Z" transform="translate(-477.84 -234.088)" fill="#00ad79"/>
  <path id="Path_4541" data-name="Path 4541" d="M514.88,372.113c-6.286,0-12.573.021-18.86,0a4.458,4.458,0,0,1-3.437-7.46,4.513,4.513,0,0,1,3.667-1.488h31.433c1.991,0,3.981-.021,5.972,0a4.49,4.49,0,1,1,0,8.969c-6.266,0-12.531-.021-18.776-.021Z" transform="translate(-477.963 -318.473)" fill="#00ad79"/>
  <path id="Path_4542" data-name="Path 4542" d="M507.058,478.568c-3.73,0-7.481.021-11.211-.021a4.342,4.342,0,0,1-4.128-3,4.206,4.206,0,0,1,1.341-4.82,5.062,5.062,0,0,1,2.745-1.048c7.544-.084,15.088-.063,22.632-.021a4.433,4.433,0,0,1-.063,8.864c-3.772.1-7.544.063-11.316.042Z" transform="translate(-478.019 -402.631)" fill="#00ad79"/>
  <path id="Path_4543" data-name="Path 4543" d="M866.347,284.476c-4.191-4.191-8.382-8.361-12.447-12.426,1.341-1.425,2.64-2.976,4.128-4.338a3.074,3.074,0,0,1,4.212.272q4.118,4.023,8.131,8.131a3.143,3.143,0,0,1,.084,4.3C869.113,281.835,867.689,283.156,866.347,284.476Z" transform="translate(-764.51 -242.466)" fill="#00ad79"/>
</svg>
