<svg id="Group_4464" data-name="Group 4464" xmlns="http://www.w3.org/2000/svg" width="98.307" height="98.296" viewBox="0 0 98.307 98.296">
  <path id="Path_4586" data-name="Path 4586" d="M301.987,149.439c-1.951-.852-3.754-1.672-5.59-2.426a1.232,1.232,0,0,0-.885.213,9.442,9.442,0,0,1-13.328-4.836c-.115-.3-.18-.607-.311-1.033l9.983,1.754c.459-2.525.9-4.984,1.361-7.574-3.328-.59-6.59-1.18-9.934-1.77a4.149,4.149,0,0,1,.377-.59,9.468,9.468,0,0,1,10.59-2.885,9.308,9.308,0,0,1,6.115,9.082.8.8,0,0,0,.557.918c2.279.984,4.557,1.984,6.82,3a.779.779,0,0,0,1.066-.2c1.082-1.2,2.2-2.344,3.361-3.59-.541-.738-1.049-1.443-1.557-2.148a19.74,19.74,0,0,1-1.377-1.934,2.827,2.827,0,0,0-3.147-1.607c-4.426.344-7.7-3.885-6.639-8.41.967.8,1.869,1.557,2.77,2.311s1.8,1.508,2.8,2.328c1.2-1.41,2.361-2.787,3.59-4.246-1.852-1.541-3.639-3.049-5.525-4.623a5.813,5.813,0,0,1,3.984-.59,6.724,6.724,0,0,1,5.328,8.557,1.532,1.532,0,0,0,.2,1.164c1.049,1.525,2.164,3.016,3.279,4.557a2.1,2.1,0,0,0,.328-.3,72.657,72.657,0,0,0,12.246-22.442,33.049,33.049,0,0,0,1.7-11.852c-.262-4.557-1.672-8.623-5.311-11.639a15.418,15.418,0,0,0-8.951-3.41c-1.7-.131-3.426-.016-5.164-.213,1.689-.279,3.361-.607,5.049-.82a24.42,24.42,0,0,1,10.77.787c6.262,2.049,9.8,6.492,10.918,12.885.984,5.623,0,11.082-1.721,16.442-.656,2.049-1.492,4.049-2.3,6.033a1.392,1.392,0,0,0,.066,1.3c.557,1.066,1.1,2.131,1.557,3.246.246.574.492.77,1.148.639,2.246-.443,4.508-.82,6.754-1.229.508-.1.82-.016.967.557.426,1.639.885,3.262,1.328,4.885.18.689-.033,1.066-.754,1.311-2.1.7-4.164,1.492-6.246,2.213-.508.18-.738.393-.656.984a31.663,31.663,0,0,1,0,9.229c-.082.59.148.8.672.984,2.131.738,4.262,1.541,6.393,2.279.492.164.754.426.623.934-.492,1.951-.984,3.885-1.492,5.869-2.721-.475-5.279-.9-7.82-1.377-.443-.082-.656,0-.82.41a36.145,36.145,0,0,1-4.934,8.459c-.049.066-.066.148-.148.3,1.754,2.082,3.525,4.18,5.426,6.426-1.59,1.59-3.164,3.147-4.77,4.754-1.951-1.623-3.82-3.131-5.606-4.721a1.184,1.184,0,0,0-1.836-.066,31.933,31.933,0,0,1-7.672,4.344c-.525.213-.689.426-.557,1.033.443,2.2.8,4.393,1.2,6.59.049.3.066.59.115,1.033-1.934.492-3.852,1-5.787,1.475-.508.131-.82-.049-1.016-.623-.738-2.148-1.557-4.246-2.3-6.393a.833.833,0,0,0-1.082-.639,32.88,32.88,0,0,1-9.147,0,.777.777,0,0,0-1.016.623c-.754,2.131-1.574,4.246-2.311,6.377-.2.541-.475.787-1,.639-1.82-.475-3.639-.951-5.426-1.492-.164-.049-.3-.623-.262-.918q.467-2.9,1.033-5.8c.3-1.574.311-1.574-1.148-2.229a17.354,17.354,0,0,1-2.41-1.2,2.207,2.207,0,0,0-2.328-.148,47.326,47.326,0,0,1-13.311,3.557,23.088,23.088,0,0,1-12.656-1.672c-5.229-2.475-7.934-6.8-8.869-12.377a31.88,31.88,0,0,1,.7-12.262c.033-.18.115-.344.066-.492.115,2.115.1,4.246.344,6.361a14.361,14.361,0,0,0,12.361,12.688c5.557.885,10.869-.131,16.082-1.918,8.8-3,16.508-7.9,23.672-13.737A9.244,9.244,0,0,0,301.987,149.439Zm22.131-12.8a116.711,116.711,0,0,1-25.1,24.508,22.083,22.083,0,0,0,18.147-5.852A21.742,21.742,0,0,0,324.118,136.636Z" transform="translate(-247.025 -83.938)" fill="red"/>
  <path id="Path_4587" data-name="Path 4587" d="M378.945,169.088a59.735,59.735,0,0,1-6.115,12.688,22.548,22.548,0,0,0-17.8-6.7,22.029,22.029,0,0,0-15.065,7.213,22.474,22.474,0,0,0,.82,31.344,2.668,2.668,0,0,1-.361.279,68.43,68.43,0,0,1-11.656,5.557.876.876,0,0,1-1.213-.361,35.551,35.551,0,0,1-4.344-7.59c-.229-.557-.443-.787-1.115-.656-2.459.492-4.934.885-7.59,1.344-.59-2.148-1.164-4.279-1.77-6.492.377-.148.639-.279.918-.377,2.1-.77,4.2-1.541,6.311-2.262.557-.2.787-.426.689-1.033a31.673,31.673,0,0,1,0-9.147c.082-.607-.148-.8-.672-.984-2.131-.754-4.262-1.525-6.393-2.3-.246-.1-.492-.2-.885-.344.574-2,1.148-3.951,1.672-5.918.164-.607.541-.508.951-.426,2.262.393,4.525.77,6.77,1.213a.812.812,0,0,0,1.1-.59,36.091,36.091,0,0,1,5.016-8.475c-1.8-2.131-3.574-4.229-5.459-6.459,1.59-1.59,3.18-3.2,4.787-4.8,2.049,1.7,4.016,3.328,5.934,4.984a.767.767,0,0,0,1.18.033,33.762,33.762,0,0,1,8-4.59c.492-.2.639-.393.541-.951-.475-2.492-.9-4.984-1.377-7.672,2.066-.525,4.115-1.049,6.18-1.525.164-.033.541.279.623.508.82,2.148,1.607,4.3,2.361,6.459.213.607.492.8,1.115.7a32.3,32.3,0,0,1,9.065,0c.656.1.9-.148,1.115-.721.738-2.131,1.541-4.262,2.311-6.393.131-.377.246-.721.77-.59,2,.525,4,1.033,6.065,1.557-.426,2.393-.82,4.639-1.229,6.885-.262,1.426-.279,1.426,1.082,2.033A35.628,35.628,0,0,1,378.945,169.088Z" transform="translate(-301.934 -142.537)" fill="red"/>
</svg>
