<svg id="Group_4463" data-name="Group 4463" xmlns="http://www.w3.org/2000/svg" width="98.345" height="98.296" viewBox="0 0 98.345 98.296">
  <path id="Path_4583" data-name="Path 4583" d="M336.069,83.313c-.123,2.082-.2,4.072-.386,6.047a70.717,70.717,0,0,1-2.376,12.557,59.712,59.712,0,0,1-8.746,18.557,57.982,57.982,0,0,1-8.885,9.656q-6.988,6.2-14.1,12.248c-3.533,3.008-7.142,5.923-10.721,8.87a.87.87,0,0,0-.37.787c.077,4.473.123,8.947.185,13.42.015.941.046,1.9.046,2.838a1.7,1.7,0,0,1-.6,1.4q-5.623,4.4-11.245,8.824c-.663.524-1.034.386-1.2-.447-.879-4.1-1.743-8.191-2.607-12.294-.108-.54-.231-1.064-.339-1.558-.586-.139-1.126-.278-1.681-.37a1.067,1.067,0,0,0-.617.093c-1.743.771-3.486,1.589-5.245,2.329a2.009,2.009,0,0,1-1.2.093,10.582,10.582,0,0,1-3.918-2.237,40.354,40.354,0,0,1-7.975-8.392c-.185-.278-.339-.571-.509-.848a3.258,3.258,0,0,1-.108-3.64c.725-1.265,1.219-2.638,1.851-3.949a2.041,2.041,0,0,0,.093-1.249c-.123-1.1-.725-1.419-1.743-1.62-3.98-.787-7.944-1.681-11.924-2.545-.139-.031-.278-.062-.432-.093-.74-.185-.864-.571-.4-1.172l5.368-6.849c1.142-1.45,2.283-2.9,3.409-4.365a1.8,1.8,0,0,1,1.527-.694c2.869.062,5.738.108,8.608.154,2.36.046,4.72.062,7.065.123a1.171,1.171,0,0,0,1.049-.509c5.06-6.062,10.088-12.125,15.21-18.125a148.11,148.11,0,0,1,10.721-11.492,52.181,52.181,0,0,1,13.775-9.225,67.791,67.791,0,0,1,17.94-5.461,58,58,0,0,1,9.811-.879C335.575,83.313,335.745,83.313,336.069,83.313Zm-37.824,29.941a7.867,7.867,0,1,0,7.775-7.913A7.868,7.868,0,0,0,298.245,113.254Z" transform="translate(-237.724 -83.297)" fill="#01cefc"/>
  <path id="Path_4584" data-name="Path 4584" d="M232.189,545.4c.37.6.71,1.172,1.08,1.759-4,5.569-5.013,11.924-4.905,18.68h.941a33.018,33.018,0,0,0,12.8-2.175,20.173,20.173,0,0,0,4.6-2.514.518.518,0,0,1,.679-.031c.447.293.926.571,1.419.864a23.141,23.141,0,0,1-5.09,5.029,30.343,30.343,0,0,1-12.834,4.844,45.121,45.121,0,0,1-8.407.54h-.617a2.71,2.71,0,0,1-.077-.417,39.855,39.855,0,0,1,2.977-17.215,21.838,21.838,0,0,1,6.525-8.638C231.587,545.909,231.865,545.662,232.189,545.4Z" transform="translate(-221.754 -474.117)" fill="#01cefc"/>
</svg>
